# xmcd
#
# Track frame offsets:
#	150
#	23303
#	35533
#	57860
#	69790
#	81060
#	91670
#	102543
#	119695
#	138465
#	168938
#	182263
#	194840
#	211650
#	217810
#	226885
#
# Disc length: 3274
#
# Revision: 3
# Processed by: cddbd v1.5.1PL0 Copyright (c) Steve Scherf et al.
# Submitted via: ExactAudioCopy v0.90a11
# Normalized: r2:DSETVAR1
#
DISCID=c90cc810
DTITLE=Various Artist - Blues Collection - Vol. 2
DYEAR=1900
DGENRE=
TTITLE0=John Mayall - Baby What You Want Me To Do
TTITLE1=Johnny Winter - Leavin' Blues
TTITLE2=BB King - Everyday I Have The Blues
TTITLE3=Hall and Oates - Deep River Blues
TTITLE4=Nina Simone - Backlash Blues
TTITLE5=Mike Bloomfield - Rx For The Blues
TTITLE6=Muddy Waters - Diamonds At Your Feet
TTITLE7=John Lee Hooker - Blues Before Sunrise
TTITLE8=Eric Clapton and The Yardbirds - They Call It Stormy Monday
TTITLE9=Big Joe Turner - How Long Blues
TTITLE10=Ella Fitzgerald - Sugar Blues
TTITLE11=Howlin' Wolf - Ain't Superstitous
TTITLE12=Johnny Winter - Kind Hearted Woman
TTITLE13=Leadbelly - Who Back Buck
TTITLE14=Jeff Beck - Ain't Got You
TTITLE15=John Mayall - John Lee Boogie
EXTD=
EXTT0=
EXTT1=
EXTT2=
EXTT3=
EXTT4=
EXTT5=
EXTT6=
EXTT7=
EXTT8=
EXTT9=
EXTT10=
EXTT11=
EXTT12=
EXTT13=
EXTT14=
EXTT15=
PLAYORDER=
